<svg width="40" height="40" viewBox="0 0 40 40" fill="none" xmlns="http://www.w3.org/2000/svg">
<path d="M27.35 6.66665C30.5833 6.66665 33.1833 9.28331 33.1833 12.5C33.1833 15.65 30.6833 18.2166 27.5667 18.3333C27.4333 18.3166 27.2833 18.3166 27.1333 18.3333M30.5667 33.3333C31.7667 33.0833 32.9 32.6 33.8333 31.8833C36.4333 29.9333 36.4333 26.7166 33.8333 24.7666C32.9167 24.0666 31.8 23.6 30.6167 23.3333M15.2667 18.1166C15.1 18.1 14.9 18.1 14.7167 18.1166C10.75 17.9833 7.59999 14.7333 7.59999 10.7333C7.59999 6.64998 10.9 3.33331 15 3.33331C19.0833 3.33331 22.4 6.64998 22.4 10.7333C22.3833 14.7333 19.2333 17.9833 15.2667 18.1166ZM6.93333 24.2666C2.89999 26.9666 2.89999 31.3666 6.93333 34.05C11.5167 37.1166 19.0333 37.1166 23.6167 34.05C27.65 31.35 27.65 26.95 23.6167 24.2666C19.05 21.2166 11.5333 21.2166 6.93333 24.2666Z" stroke="#F1505D" stroke-width="1.5" stroke-linecap="round" stroke-linejoin="round"/>
</svg>
