<svg width="14" height="14" viewBox="0 0 14 14" fill="none" xmlns="http://www.w3.org/2000/svg">
<mask id="mask0_2581_115" style="mask-type:alpha" maskUnits="userSpaceOnUse" x="0" y="0" width="14" height="14">
<rect width="14" height="14" fill="#cf2d3b"/>
</mask>
<g mask="url(#mask0_2581_115)">
<path d="M2.33341 11.6667L11.6667 2.33341M11.6667 11.6667L2.33341 2.33341M10.8667 -6.33325H3.13342C2.22676 -6.33325 0.946743 -5.79991 0.306743 -5.15991L-5.15991 0.306763C-5.79991 0.946763 -6.33325 2.22676 -6.33325 3.13342V10.8667C-6.33325 11.7734 -5.79991 13.0534 -5.15991 13.6934L0.306743 19.1601C0.946743 19.8001 2.22676 20.3334 3.13342 20.3334H10.8667C11.7734 20.3334 13.0534 19.8001 13.6934 19.1601L19.1601 13.6934C19.8001 13.0534 20.3334 11.7734 20.3334 10.8667V3.13342C20.3334 2.22676 19.8001 0.946763 19.1601 0.306763L13.6934 -5.15991C13.0534 -5.79991 11.7734 -6.33325 10.8667 -6.33325Z" stroke="#cf2d3b" stroke-width="1.5" stroke-linecap="round" stroke-linejoin="round"/>
</g>
</svg>
