<svg width="25" height="25" viewBox="0 0 25 25" fill="none" xmlns="http://www.w3.org/2000/svg">
<mask id="mask0_2593_111" style="mask-type:alpha" maskUnits="userSpaceOnUse" x="0" y="0" width="25" height="25">
<rect width="25" height="25" fill="#D9D9D9"/>
</mask>
<g mask="url(#mask0_2593_111)">
<path d="M4.95825 12.5001L9.97909 17.5417L20.0416 7.45841M9.89575 -7.39575C11.3333 -8.62492 13.6874 -8.62492 15.1458 -7.39575L18.4374 -4.56242C19.0624 -4.02075 20.2291 -3.58325 21.0624 -3.58325H24.6041C26.8124 -3.58325 28.6249 -1.77075 28.6249 0.437581V3.97925C28.6249 4.79175 29.0624 5.97925 29.6041 6.60425L32.4374 9.89591C33.6666 11.3334 33.6666 13.6876 32.4374 15.1459L29.6041 18.4376C29.0624 19.0626 28.6249 20.2292 28.6249 21.0626V24.6042C28.6249 26.8126 26.8124 28.6251 24.6041 28.6251H21.0624C20.2499 28.6251 19.0624 29.0626 18.4374 29.6042L15.1458 32.4376C13.7083 33.6667 11.3541 33.6667 9.89575 32.4376L6.60409 29.6042C5.97909 29.0626 4.81242 28.6251 3.97909 28.6251H0.374919C-1.83341 28.6251 -3.64591 26.8126 -3.64591 24.6042V21.0417C-3.64591 20.2292 -4.08341 19.0626 -4.60425 18.4376L-7.41675 15.1251C-8.62508 13.6876 -8.62508 11.3542 -7.41675 9.91675L-4.60425 6.60425C-4.08341 5.97925 -3.64591 4.81258 -3.64591 4.00008V0.416747C-3.64591 -1.79159 -1.83341 -3.60409 0.374919 -3.60409H3.97909C4.79159 -3.60409 5.97909 -4.04159 6.60409 -4.58325L9.89575 -7.39575Z" stroke="white" stroke-width="3" stroke-linecap="round" stroke-linejoin="round"/>
</g>
</svg>
