<svg width="90" height="90" viewBox="0 0 90 90" fill="none" xmlns="http://www.w3.org/2000/svg">
<path d="M18.525 71.5499L71.55 18.525M55.875 7.5H34.125C31.575 7.5 27.975 9.00002 26.175 10.8L10.8 26.175C9.00002 27.975 7.5 31.575 7.5 34.125V55.875C7.5 58.425 9.00002 62.025 10.8 63.825L26.175 79.2C27.975 81 31.575 82.5 34.125 82.5H55.875C58.425 82.5 62.025 81 63.825 79.2L79.2 63.825C81 62.025 82.5 58.425 82.5 55.875V34.125C82.5 31.575 81 27.975 79.2 26.175L63.825 10.8C62.025 9.00002 58.425 7.5 55.875 7.5Z" stroke="#CF2D3B" stroke-width="6" stroke-linecap="round" stroke-linejoin="round"/>
</svg>
