<svg width="40" height="40" viewBox="0 0 40 40" fill="none" xmlns="http://www.w3.org/2000/svg">
<path d="M28.2834 24.0667C30.5667 24.4501 33.0834 24.0501 34.85 22.8667C37.2 21.3001 37.2 18.7334 34.85 17.1667C33.0667 15.9834 30.5167 15.5834 28.2334 15.9834M11.6667 24.0667C9.38336 24.4501 6.86669 24.0501 5.10002 22.8667C2.75002 21.3001 2.75002 18.7334 5.10002 17.1667C6.88336 15.9834 9.43335 15.5834 11.7167 15.9834M30 11.9334C29.9 11.9167 29.7834 11.9167 29.6834 11.9334C27.3834 11.85 25.55 9.96671 25.55 7.63338C25.55 5.25004 27.4667 3.33337 29.85 3.33337C32.2334 3.33337 34.15 5.26671 34.15 7.63338C34.1333 9.96671 32.3 11.85 30 11.9334ZM9.95002 11.9334C10.05 11.9167 10.1667 11.9167 10.2667 11.9334C12.5667 11.85 14.4 9.96671 14.4 7.63338C14.4 5.25004 12.4834 3.33337 10.1 3.33337C7.71669 3.33337 5.80002 5.26671 5.80002 7.63338C5.81669 9.96671 7.65002 11.85 9.95002 11.9334ZM20 24.3834C19.9 24.3667 19.7834 24.3667 19.6834 24.3834C17.3834 24.3 15.55 22.4167 15.55 20.0834C15.55 17.7 17.4667 15.7834 19.85 15.7834C22.2334 15.7834 24.15 17.7167 24.15 20.0834C24.1334 22.4167 22.3 24.3167 20 24.3834ZM15.15 29.6334C12.8 31.2 12.8 33.7667 15.15 35.3334C17.8167 37.1167 22.1834 37.1167 24.85 35.3334C27.2 33.7667 27.2 31.2 24.85 29.6334C22.2 27.8667 17.8167 27.8667 15.15 29.6334Z" stroke="#F1505D" stroke-width="1.5" stroke-linecap="round" stroke-linejoin="round"/>
</svg>
