<svg width="28" height="28" viewBox="0 0 28 28" fill="none" xmlns="http://www.w3.org/2000/svg">
<path fill-rule="evenodd" clip-rule="evenodd" d="M4.44087 7.2408C5.49103 6.19096 6.91515 5.6012 8.40007 5.6012C9.88499 5.6012 11.3091 6.19096 12.3593 7.2408L14.0001 8.8802L15.6409 7.2408C16.1575 6.70595 16.7754 6.27933 17.4586 5.98583C18.1418 5.69234 18.8767 5.53786 19.6202 5.5314C20.3638 5.52494 21.1012 5.66663 21.7894 5.9482C22.4776 6.22977 23.1029 6.64559 23.6287 7.17139C24.1545 7.69719 24.5703 8.32244 24.8519 9.01066C25.1334 9.69888 25.2751 10.4363 25.2687 11.1799C25.2622 11.9234 25.1077 12.6582 24.8142 13.3415C24.5207 14.0247 24.0941 14.6426 23.5593 15.1592L14.0001 24.7198L4.44087 15.1592C3.39104 14.109 2.80127 12.6849 2.80127 11.2C2.80127 9.71508 3.39104 8.29096 4.44087 7.2408V7.2408Z" stroke="#F1505D" stroke-width="2" stroke-linejoin="round"/>
</svg>
