<svg width="32" height="32" viewBox="0 0 32 32" fill="none" xmlns="http://www.w3.org/2000/svg">
<path fill-rule="evenodd" clip-rule="evenodd" d="M5.07519 8.27519C6.27536 7.07538 7.90294 6.40136 9.59999 6.40136C11.297 6.40136 12.9246 7.07538 14.1248 8.27519L16 10.1488L17.8752 8.27519C18.4656 7.66393 19.1718 7.17636 19.9526 6.84095C20.7334 6.50553 21.5732 6.32898 22.423 6.32159C23.2728 6.31421 24.1156 6.47614 24.9021 6.79794C25.6886 7.11973 26.4032 7.59495 27.0041 8.19587C27.605 8.79678 28.0802 9.51135 28.402 10.2979C28.7238 11.0844 28.8858 11.9272 28.8784 12.777C28.871 13.6267 28.6945 14.4666 28.359 15.2474C28.0236 16.0282 27.536 16.7344 26.9248 17.3248L16 28.2512L5.07519 17.3248C3.87537 16.1246 3.20135 14.497 3.20135 12.8C3.20135 11.1029 3.87537 9.47537 5.07519 8.27519V8.27519Z" stroke="#979797" stroke-width="2" stroke-linejoin="round"/>
</svg>
