<svg width="20" height="20" viewBox="0 0 20 20" fill="none" xmlns="http://www.w3.org/2000/svg">
<path d="M2.84155 18.3333C2.84155 15.1083 6.04988 12.5 9.99988 12.5C10.7999 12.5 11.5749 12.6083 12.2999 12.8083M15.8582 14.1167L14.0999 15.875M14.1166 14.1334L15.8832 15.8917M14.1666 5.83334C14.1666 8.13453 12.3011 10 9.99988 10C7.6987 10 5.83322 8.13453 5.83322 5.83334C5.83322 3.53215 7.6987 1.66667 9.99988 1.66667C12.3011 1.66667 14.1666 3.53215 14.1666 5.83334ZM18.3332 15C18.3332 15.2667 18.2999 15.525 18.2332 15.775C18.1582 16.1083 18.0249 16.4333 17.8499 16.7167C17.2749 17.6833 16.2166 18.3333 14.9999 18.3333C14.1416 18.3333 13.3665 18.0083 12.7832 17.475C12.5332 17.2583 12.3165 17 12.1499 16.7167C11.8415 16.2167 11.6666 15.625 11.6666 15C11.6666 14.1 12.0249 13.275 12.6082 12.675C13.2166 12.05 14.0666 11.6667 14.9999 11.6667C15.9832 11.6667 16.8749 12.0917 17.4749 12.775C18.0082 13.3667 18.3332 14.15 18.3332 15Z" stroke="white" stroke-width="1.5" stroke-miterlimit="10" stroke-linecap="round" stroke-linejoin="round"/>
</svg>
