<svg width="20" height="20" viewBox="0 0 20 20" fill="none" xmlns="http://www.w3.org/2000/svg">
<path d="M2.84155 18.3333C2.84155 15.1083 6.04988 12.5 9.99988 12.5C10.7999 12.5 11.5749 12.6083 12.2999 12.8083M13.6999 15L14.5249 15.825L16.2999 14.1833M14.1666 5.83332C14.1666 8.13451 12.3011 9.99999 9.99988 9.99999C7.6987 9.99999 5.83322 8.13451 5.83322 5.83332C5.83322 3.53214 7.6987 1.66666 9.99988 1.66666C12.3011 1.66666 14.1666 3.53214 14.1666 5.83332ZM18.3332 15C18.3332 15.625 18.1582 16.2167 17.8499 16.7167C17.6749 17.0167 17.4499 17.2833 17.1916 17.5C16.6082 18.025 15.8416 18.3333 14.9999 18.3333C13.7832 18.3333 12.7249 17.6833 12.1499 16.7167C11.8415 16.2167 11.6666 15.625 11.6666 15C11.6666 13.95 12.1499 13.0083 12.9166 12.4C13.4916 11.9417 14.2166 11.6667 14.9999 11.6667C16.8416 11.6667 18.3332 13.1583 18.3332 15Z" stroke="#F1505D" stroke-width="1.5" stroke-linecap="round" stroke-linejoin="round"/>
</svg>
