<svg width="20" height="20" viewBox="0 0 20 20" fill="none" xmlns="http://www.w3.org/2000/svg">
<path d="M14.1667 11.1667V13.6667C14.1667 17 12.8334 18.3333 9.50008 18.3333H6.33341C3.00008 18.3333 1.66675 17 1.66675 13.6667V10.5C1.66675 7.16666 3.00008 5.83332 6.33341 5.83332H8.83342M14.1667 11.1667H11.5001C9.50008 11.1667 8.83342 10.5 8.83342 8.49999V5.83332M14.1667 11.1667L8.83342 5.83332M9.66675 1.66666H13.0001M5.83341 4.16666C5.83341 2.78332 6.95008 1.66666 8.33342 1.66666H10.5167M18.3334 6.66666V11.825C18.3334 13.1167 17.2834 14.1667 15.9917 14.1667M18.3334 6.66666H15.8334C13.9584 6.66666 13.3334 6.04166 13.3334 4.16666V1.66666L18.3334 6.66666Z" stroke="#F1505D" stroke-width="1.5" stroke-linecap="round" stroke-linejoin="round"/>
</svg>
