<svg width="28" height="28" viewBox="0 0 28 28" fill="none" xmlns="http://www.w3.org/2000/svg">
<path d="M19.8335 15.6333V19.1333C19.8335 23.8 17.9668 25.6667 13.3002 25.6667H8.86683C4.20016 25.6667 2.3335 23.8 2.3335 19.1333V14.7C2.3335 10.0333 4.20016 8.16668 8.86683 8.16668H12.3668M19.8335 15.6333H16.1002C13.3002 15.6333 12.3668 14.7 12.3668 11.9V8.16668M19.8335 15.6333L12.3668 8.16668M13.5335 2.33334H18.2002M8.16683 5.83334C8.16683 3.89668 9.73016 2.33334 11.6668 2.33334H14.7235M25.6668 9.33334V16.555C25.6668 18.3633 24.1968 19.8333 22.3885 19.8333M25.6668 9.33334H22.1668C19.5418 9.33334 18.6668 8.45834 18.6668 5.83334V2.33334L25.6668 9.33334Z" stroke="#F1505D" stroke-width="1.5" stroke-linecap="round" stroke-linejoin="round"/>
</svg>
