<svg width="23" height="23" viewBox="0 0 23 23" fill="none" xmlns="http://www.w3.org/2000/svg">
<path d="M6.70833 10.5417V6.70832C6.70833 5.43749 7.21317 4.21872 8.11178 3.3201C9.01039 2.42149 10.2292 1.91666 11.5 1.91666C12.7708 1.91666 13.9896 2.42149 14.8882 3.3201C15.7868 4.21872 16.2917 5.43749 16.2917 6.70832V10.5417M4.79167 10.5417H18.2083C19.2669 10.5417 20.125 11.3998 20.125 12.4583V19.1667C20.125 20.2252 19.2669 21.0833 18.2083 21.0833H4.79167C3.73312 21.0833 2.875 20.2252 2.875 19.1667V12.4583C2.875 11.3998 3.73312 10.5417 4.79167 10.5417Z" stroke="#F1505D" stroke-width="2" stroke-linecap="round" stroke-linejoin="round"/>
</svg>
