<svg width="20" height="20" viewBox="0 0 20 20" fill="none" xmlns="http://www.w3.org/2000/svg">
<path d="M2.84167 18.3334C2.84167 15.1084 6.05001 12.5 10 12.5C10.8 12.5 11.575 12.6084 12.3 12.8084M15.8583 14.1167L14.1 15.875M14.1167 14.1334L15.8833 15.8917M14.1667 5.83335C14.1667 8.13454 12.3012 10 10 10C7.69882 10 5.83334 8.13454 5.83334 5.83335C5.83334 3.53217 7.69882 1.66669 10 1.66669C12.3012 1.66669 14.1667 3.53217 14.1667 5.83335ZM18.3333 15C18.3333 15.2667 18.3 15.525 18.2333 15.775C18.1583 16.1083 18.025 16.4334 17.85 16.7167C17.275 17.6834 16.2167 18.3334 15 18.3334C14.1417 18.3334 13.3667 18.0083 12.7833 17.475C12.5333 17.2583 12.3167 17 12.15 16.7167C11.8417 16.2167 11.6667 15.625 11.6667 15C11.6667 14.1 12.025 13.275 12.6083 12.675C13.2167 12.05 14.0667 11.6667 15 11.6667C15.9833 11.6667 16.875 12.0917 17.475 12.775C18.0083 13.3667 18.3333 14.15 18.3333 15Z" stroke="#F1505D" stroke-width="1.5" stroke-miterlimit="10" stroke-linecap="round" stroke-linejoin="round"/>
</svg>
