<svg width="40" height="40" viewBox="0 0 40 40" fill="none" xmlns="http://www.w3.org/2000/svg">
<path d="M20 36.6666C24.3334 36.6666 28.2667 35.0166 31.2334 32.3C31.0667 30.7333 30.0667 29.2 28.2834 28C23.75 24.9666 16.2834 24.9666 11.7167 28C9.93337 29.2 8.93337 30.7333 8.76671 32.3C11.7334 35.0166 15.6667 36.6666 20 36.6666ZM20 36.6666C29.2048 36.6666 36.6667 29.2047 36.6667 20C36.6667 10.7952 29.2048 3.33331 20 3.33331C10.7953 3.33331 3.33337 10.7952 3.33337 20C3.33337 29.2047 10.7953 36.6666 20 36.6666ZM20.2 21.3C20.0834 21.2833 19.9334 21.2833 19.8 21.3C16.8667 21.2 14.5334 18.8 14.5334 15.85C14.5334 12.8333 16.9667 10.3833 20 10.3833C23.0167 10.3833 25.4667 12.8333 25.4667 15.85C25.45 18.8 23.1334 21.2 20.2 21.3Z" stroke="#F1505D" stroke-width="1.5" stroke-linecap="round" stroke-linejoin="round"/>
</svg>
