<svg width="20" height="20" viewBox="0 0 20 20" fill="none" xmlns="http://www.w3.org/2000/svg">
<path d="M9.99996 18.3334C12.1666 18.3334 14.1333 17.5084 15.6166 16.15C15.5333 15.3667 15.0333 14.6 14.1416 14C11.875 12.4834 8.14163 12.4834 5.85829 14C4.96663 14.6 4.46663 15.3667 4.38329 16.15C5.86663 17.5084 7.83329 18.3334 9.99996 18.3334ZM9.99996 18.3334C14.6023 18.3334 18.3333 14.6024 18.3333 10C18.3333 5.39765 14.6023 1.66669 9.99996 1.66669C5.39759 1.66669 1.66663 5.39765 1.66663 10C1.66663 14.6024 5.39759 18.3334 9.99996 18.3334ZM10.1 10.65C10.0416 10.6417 9.96663 10.6417 9.89996 10.65C8.43329 10.6 7.26663 9.40002 7.26663 7.92502C7.26663 6.41669 8.48329 5.19169 9.99996 5.19169C11.5083 5.19169 12.7333 6.41669 12.7333 7.92502C12.725 9.40002 11.5666 10.6 10.1 10.65Z" stroke="#F1505D" stroke-width="1.5" stroke-linecap="round" stroke-linejoin="round"/>
</svg>
